<svg width="32" height="32" viewBox="0 0 32 32" fill="none" xmlns="http://www.w3.org/2000/svg">
<g clip-path="url(#clip0)">
<rect width="32" height="32" rx="5" fill="#00600F"/>
<rect x="2.854" y="17.4782" width="20.1442" height="5.74191" fill="#032709"/>
<path d="M27.1188 22.2078C29.2239 22.1542 23.6825 16.729 26.4231 18.2868C29.1637 19.8447 27.9346 14.1405 28.575 13.9694" stroke="black"/>
<ellipse cx="27.1187" cy="23.5809" rx="0.849453" ry="1.49789" fill="#032709"/>
<ellipse cx="7.34402" cy="27.3393" rx="2.06296" ry="1.87236" fill="black"/>
<path d="M16.9307 25.9841C18.3811 25.2884 20.0952 25.9121 20.7594 27.3772L22.7588 31.7877L20.1327 33.0474L16.9307 25.9841Z" fill="black"/>
<path d="M16.9307 25.9841C18.3811 25.2884 20.0952 25.9121 20.7594 27.3772L22.7588 31.7877L20.1327 33.0474L16.9307 25.9841Z" fill="black"/>
<path d="M5.0716 26.0516C6.69821 25.7565 8.24327 26.8382 8.52258 28.4676L0.036507 30.0068L-0.469228 27.0565L5.0716 26.0516Z" fill="black"/>
<path d="M5.0716 26.0516C6.69821 25.7565 8.24327 26.8382 8.52258 28.4676L0.036507 30.0068L-0.469228 27.0565L5.0716 26.0516Z" fill="black"/>
<rect x="14.7464" y="2" width="16.5037" height="14.2299" rx="2" fill="#032709"/>
<rect x="1.15515" y="4.49649" width="13.5912" height="11.7335" rx="2" fill="#032709"/>
<rect x="16.2172" y="3.74823" width="13.562" height="10.9831" fill="#99BFC1" stroke="#00363A"/>
<rect x="2.62592" y="6.24472" width="10.6496" height="8.48663" fill="#99BFC1" stroke="#00363A"/>
<line x1="6.25189" y1="12.4849" x2="9.74678" y2="12.4849" stroke="#032709" stroke-width="0.5"/>
<line x1="4.55298" y1="9.48911" x2="11.5428" y2="9.48911" stroke="#032709" stroke-width="0.5"/>
<line x1="5.28107" y1="10.987" x2="10.5234" y2="10.987" stroke="#032709" stroke-width="0.5"/>
<line x1="3.58215" y1="7.99121" x2="12.3194" y2="7.99121" stroke="#032709" stroke-width="0.5"/>
<line x1="20.733" y1="11.9856" x2="25.3929" y2="11.9856" stroke="#032709" stroke-width="0.5"/>
<line x1="18.4678" y1="7.99121" x2="27.7875" y2="7.99121" stroke="#032709" stroke-width="0.5"/>
<line x1="19.4386" y1="9.9884" x2="26.4284" y2="9.9884" stroke="#032709" stroke-width="0.5"/>
<line x1="17.1734" y1="5.99402" x2="28.823" y2="5.99402" stroke="#032709" stroke-width="0.5"/>
<ellipse cx="12.8048" cy="16.1051" rx="6.79562" ry="8.11357" fill="#FFD9C2"/>
<path d="M10.6209 23.727C10.5857 23.8945 12.9993 24.3079 14.7464 23.727V26.2159H10.6209C10.6209 26.2159 10.656 23.5595 10.6209 23.727Z" fill="#FFD9C2"/>
<path d="M19.5224 14.6072C21.0566 12.61 18.751 11.3618 19.5224 10.7872C19.1504 10.0905 18.5889 9.14886 17.9015 8.61567C17.2142 8.08249 16.4143 7.96824 15.5162 7.67968C14.6181 7.39113 13.2915 6.86813 12.3194 6.86813C11.3473 6.86813 10.7488 7.39113 9.85071 7.67968C8.95261 7.96824 8.88088 9.08108 8.1935 9.61427C7.50613 10.1475 5.6531 11.9134 5.2811 12.61C4.90909 13.3067 5.84458 14.9766 5.84458 15.7306L9.85071 15.2313L14.261 16.4796L15.5162 15.2313L19.5224 14.6072Z" fill="#7A6F34"/>
<path d="M6.00916 28.9662C6.00916 27.3094 7.3523 25.9662 9.00915 25.9662H16.6004C18.2573 25.9662 19.6004 27.3094 19.6004 28.9662V32.2074H6.00916V28.9662Z" fill="black"/>
<path d="M25.6807 24.1789C26.1375 23.5077 27.0419 23.3483 27.7007 23.8228C28.3595 24.2973 28.5232 25.226 28.0664 25.8972L22.5914 33.94L20.2057 32.2217L25.6807 24.1789Z" fill="black"/>
<path d="M25.6807 24.1789C26.1375 23.5077 27.0419 23.3483 27.7007 23.8228C28.3595 24.2973 28.5232 25.226 28.0664 25.8972L22.5914 33.94L20.2057 32.2217L25.6807 24.1789Z" fill="black"/>
<path d="M2.0608 18.943C2.51765 18.2719 3.42204 18.1125 4.08081 18.587C4.73959 19.0615 4.90328 19.9901 4.44643 20.6613L-0.697489 28.2178L-3.08312 26.4996L2.0608 18.943Z" fill="black"/>
<path d="M2.0608 18.943C2.51765 18.2719 3.42204 18.1125 4.08081 18.587C4.73959 19.0615 4.90328 19.9901 4.44643 20.6613L-0.697489 28.2178L-3.08312 26.4996L2.0608 18.943Z" fill="black"/>
</g>
<defs>
<clipPath id="clip0">
<rect width="32" height="32" rx="5" fill="white"/>
</clipPath>
</defs>
</svg>
