<svg width="10" height="10" viewBox="0 0 10 10" fill="none" xmlns="http://www.w3.org/2000/svg">
<g clip-path="url(#clip0)">
<rect width="10" height="10" rx="1" fill="#00600F"/>
<rect x="0.729248" y="5.84601" width="5.86726" height="1.79772" fill="#032709"/>
<path d="M8.01357 7.15701C8.81523 7.14127 6.70501 5.54828 7.74865 6.00571C8.79229 6.46314 8.32427 4.78824 8.56811 4.73801" stroke="black" stroke-width="0.2"/>
<ellipse cx="8.01361" cy="7.56018" rx="0.323481" ry="0.439818" fill="#032709"/>
<ellipse cx="2.03702" cy="8.93341" rx="0.600864" ry="0.586212" fill="black"/>
<path d="M4.82928 8.50909V8.50909C5.25173 8.29128 5.74391 8.46973 5.92861 8.90767L6.52682 10.3261L5.76192 10.7205L4.82928 8.50909Z" fill="black"/>
<path d="M4.82928 8.50909V8.50909C5.25173 8.29128 5.74391 8.46973 5.92861 8.90767L6.52682 10.3261L5.76192 10.7205L4.82928 8.50909Z" fill="black"/>
<path d="M1.31496 8.54197C1.822 8.44311 2.29898 8.77653 2.38033 9.28667V9.28667L-0.0913501 9.76856L-0.238652 8.84487L1.31496 8.54197Z" fill="black"/>
<path d="M1.31496 8.54197C1.822 8.44311 2.29898 8.77653 2.38033 9.28667V9.28667L-0.0913501 9.76856L-0.238652 8.84487L1.31496 8.54197Z" fill="black"/>
<rect x="4" width="6" height="6" rx="0.5" fill="#032709"/>
<rect x="0.234375" y="1.78162" width="3.95863" height="3.6736" rx="0.5" fill="#032709"/>
<rect x="5.1" y="1.1" width="3.8" height="3.8" fill="#99BFC1" stroke="#00363A" stroke-width="0.2"/>
<rect x="0.617151" y="2.27242" width="3.19312" height="2.77014" fill="#99BFC1" stroke="#00363A" stroke-width="0.2"/>
<line x1="1.71887" y1="4.31096" x2="2.73681" y2="4.31096" stroke="#032709" stroke-width="0.1"/>
<line x1="1.22406" y1="3.373" x2="3.25993" y2="3.373" stroke="#032709" stroke-width="0.1"/>
<line x1="1.43604" y1="3.84197" x2="2.96294" y2="3.84197" stroke="#032709" stroke-width="0.1"/>
<line x1="0.941284" y1="2.90404" x2="3.48612" y2="2.90404" stroke="#032709" stroke-width="0.1"/>
<line x1="6.22235" y1="3.95" x2="7.82235" y2="3.95" stroke="#032709" stroke-width="0.1"/>
<line x1="5.44452" y1="2.61669" x2="8.64452" y2="2.61669" stroke="#032709" stroke-width="0.1"/>
<line x1="5.77783" y1="3.28337" x2="8.17783" y2="3.28337" stroke="#032709" stroke-width="0.1"/>
<line x1="5" y1="1.95" x2="9" y2="1.95" stroke="#032709" stroke-width="0.1"/>
<ellipse cx="3.62751" cy="5.41614" rx="1.97932" ry="2.54025" fill="#FFD9C2"/>
<path d="M2.9915 7.80243C2.98128 7.85487 3.68426 7.9843 4.19312 7.80243V8.58167H2.9915C2.9915 8.58167 3.00173 7.74999 2.9915 7.80243Z" fill="#FFD9C2"/>
<path d="M5.58408 4.94715C6.03095 4.32186 5.3594 3.93105 5.58408 3.75114C5.47573 3.53303 5.31219 3.2382 5.11198 3.07127C4.91178 2.90434 4.67882 2.86857 4.41724 2.77823C4.15565 2.68788 3.76925 2.52414 3.48612 2.52414C3.20298 2.52414 3.02865 2.68788 2.76707 2.77823C2.50549 2.86857 2.48459 3.21698 2.28439 3.38392C2.08418 3.55085 1.54446 4.10375 1.43611 4.32186C1.32776 4.53997 1.60023 5.0628 1.60023 5.29888L2.76707 5.14255L4.05164 5.53336L4.41724 5.14255L5.58408 4.94715Z" fill="#7A6F34"/>
<path d="M1.64819 9.50351C1.64819 8.95122 2.09591 8.50351 2.64819 8.50351H4.60683C5.15911 8.50351 5.60683 8.95122 5.60683 9.50351V10.4576H1.64819V9.50351Z" fill="black"/>
<path d="M7.38363 7.93466C7.51346 7.72965 7.77427 7.68388 7.96615 7.83244V7.83244C8.15803 7.981 8.20833 8.26763 8.0785 8.47264L6.478 11L5.78313 10.462L7.38363 7.93466Z" fill="black"/>
<path d="M7.38363 7.93466C7.51346 7.72965 7.77427 7.68388 7.96615 7.83244V7.83244C8.15803 7.981 8.20833 8.26763 8.0785 8.47264L6.478 11L5.78313 10.462L7.38363 7.93466Z" fill="black"/>
<path d="M0.504122 6.2954C0.63395 6.09039 0.894743 6.04462 1.08662 6.19318V6.19318C1.2785 6.34173 1.3288 6.62835 1.19897 6.83336L-0.305126 9.20848L-0.999972 8.67051L0.504122 6.2954Z" fill="black"/>
<path d="M0.504122 6.2954C0.63395 6.09039 0.894743 6.04462 1.08662 6.19318V6.19318C1.2785 6.34173 1.3288 6.62835 1.19897 6.83336L-0.305126 9.20848L-0.999972 8.67051L0.504122 6.2954Z" fill="black"/>
</g>
<defs>
<clipPath id="clip0">
<rect width="10" height="10" rx="1" fill="white"/>
</clipPath>
</defs>
</svg>
